# xmcd
#
# Track frame offsets:
#	150
#	22824
#	48982
#	70216
#	87270
#	102501
#	131221
#	151378
#	187885
#	203635
#	220965
#	240325
#	260923
#	278939
#	291145
#	301061
#	317722
#
# Disc length: 4555 seconds
#
# Revision: 0
# Processed by: cddbd v1.5.2PL0 Copyright (c) Steve Scherf et al.
# Submitted via: audiograbber 1.83.01
#
DISCID=f311c911
DTITLE=Kurt Ostbahn - Ois wosd brauchst! CD2 Die Perlen
DYEAR=2011
DGENRE=
TTITLE0=Überstar
TTITLE1=Nochtschicht
TTITLE2=Loss ollas liegn and steh
TTITLE3=Ka Idee
TTITLE4=Chili Con Carne
TTITLE5=Die rote Anni and ihr Kavalier
TTITLE6=Des Glück wohnt a Tia weida
TTITLE7=Gspensta
TTITLE8=Zoitog (live)
TTITLE9=A Schritt vire
TTITLE10=Stadt aus Stan (live)
TTITLE11=Host recht
TTITLE12=Wia im Kino
TTITLE13=I geh jetzt fischn
TTITLE14=Zöh auf mi
TTITLE15=Oid and grau
TTITLE16=Ohjo
EXTD=
EXTT0=
EXTT1=
EXTT2=
EXTT3=
EXTT4=
EXTT5=
EXTT6=
EXTT7=
EXTT8=
EXTT9=
EXTT10=
EXTT11=
EXTT12=
EXTT13=
EXTT14=
EXTT15=
EXTT16=
PLAYORDER=
